<?xml version="1.0" encoding="utf-8"?>
<!-- Generator: Adobe Illustrator 24.0.3, SVG Export Plug-In . SVG Version: 6.00 Build 0)  -->
<svg version="1.1"
	 id="svg1506" xmlns:cc="http://creativecommons.org/ns#" xmlns:dc="http://purl.org/dc/elements/1.1/" xmlns:inkscape="http://www.inkscape.org/namespaces/inkscape" xmlns:rdf="http://www.w3.org/1999/02/22-rdf-syntax-ns#" xmlns:sodipodi="http://sodipodi.sourceforge.net/DTD/sodipodi-0.dtd" xmlns:svg="http://www.w3.org/2000/svg"
	 xmlns="http://www.w3.org/2000/svg" xmlns:xlink="http://www.w3.org/1999/xlink" x="0px" y="0px" viewBox="0 0 467 503.3"
	 style="enable-background:new 0 0 467 503.3;" xml:space="preserve">
<style type="text/css">
	.st0{clip-path:url(#SVGID_3_);}
	.st1{clip-path:url(#SVGID_4_);fill-rule:evenodd;clip-rule:evenodd;}
	.st2{fill-rule:evenodd;clip-rule:evenodd;fill:#FFFFFF;stroke:#FFFFFF;stroke-miterlimit:10;}
</style>
<sodipodi:namedview  bordercolor="#666666" borderopacity="1" gridtolerance="10" guidetolerance="10" id="namedview1508" inkscape:current-layer="svg1506" inkscape:cx="325.28714" inkscape:cy="347.09709" inkscape:pageopacity="0" inkscape:pageshadow="2" inkscape:window-height="838" inkscape:window-maximized="1" inkscape:window-width="1600" inkscape:window-x="-8" inkscape:window-y="-8" inkscape:zoom="0.70710678" objecttolerance="10" pagecolor="#ffffff" showgrid="false">
	</sodipodi:namedview>
<g id="_x2022_-AP_x2F_1.Atoms_x2F_6.Logo_x2F_mobile_x2F_NBi21" transform="matrix(8.1277757,0,0,8.1277757,80.085713,49.606351)" inkscape:export-filename="C:\Users\alex\sites\peugeot-logo-4.png" inkscape:export-xdpi="83.743195" inkscape:export-ydpi="83.743195">
	<g id="Group-8" transform="translate(5,5)">
		<g id="Group-3" transform="translate(0,0.9185)">
			<g id="Clip-2">
			</g>
			<g>
				<defs>
					<polygon id="SVGID_1_" points="-13.5,-11.1 -12.5,-11.1 -13.5,-10.1 					"/>
				</defs>
				<defs>
					<polygon id="SVGID_2_" points="-15.5,-13.1 -16.5,-13.1 -15.5,-14.1 					"/>
				</defs>
				<clipPath id="SVGID_3_">
					<use xlink:href="#SVGID_1_"  style="overflow:visible;"/>
				</clipPath>
				<clipPath id="SVGID_4_" class="st0">
					<use xlink:href="#SVGID_2_"  style="overflow:visible;"/>
				</clipPath>
				<path id="Fill-1" inkscape:connector-curvature="0" class="st1" d="M12.4,49.3C4.5,45.6-2.3,39.6-6.9,32.4
					c-4.5-7.2-6.9-15.6-7.5-26.3c-0.2-3.4-0.2-7.7,0-13.1l0.1-2.4l2.4-0.4C-3.4-11.3,5.2-12,13.7-12s17.1,0.7,25.6,2.1l2.4,0.4
					L41.8-7c0.2,5.4,0.2,9.6,0,13.1c-0.6,10.7-3,19.1-7.5,26.3C29.7,39.6,22.8,45.6,15,49.3l-1.3,0.6L12.4,49.3z"/>
			</g>
		</g>
	</g>
</g>
<g id="_x2022_-AP_x2F_1.Atoms_x2F_6.Logo_x2F_desktop_x2F_NBi21-white" transform="matrix(4.9022495,0,0,4.8848771,109.78673,88.294138)" inkscape:export-filename="C:\Users\alex\sites\peugeot-logo-4.png" inkscape:export-xdpi="83.743195" inkscape:export-ydpi="83.743195">
	<path id="Combined-Shape" inkscape:connector-curvature="0" class="st2" d="M24.9-15.1c14.1,0,28.8,1.2,43.7,3.8
		c0.2,6,0.5,15.2,0.1,23c-0.9,17.5-4.8,31-12.1,42.7C49.3,66,38,75.9,24.9,81.9C11.8,75.9,0.5,66-6.7,54.3
		C-14,42.7-17.9,29.1-18.8,11.7c-0.4-7.8-0.2-17.1,0-23C-3.9-13.9,10.8-15.1,24.9-15.1z M24.9-13.5c-13.9,0-28.1,1.2-42.1,3.5
		c-0.3,8.9-0.3,15.9,0,21.5c0.9,17.2,4.7,30.5,11.8,41.9C1.8,64.8,12.6,74.2,24.9,80C37.3,74.2,48,64.8,55.2,53.5
		C62.3,42.1,66.1,28.8,67,11.6C67.3,6,67.3-1.1,67-9.9C53-12.3,38.9-13.5,24.9-13.5z M24.8,37.6c0,0,0.3,1.6,0.4,2.1
		c0,0.3,0.1,0.3,0,0.6c-0.2,0.8-1.2,5.3-2,9.9L23,50.9c-0.3,1.9-0.6,3.8-0.8,5.5c-0.1,0.9-0.1,1.2,0.2,2c0.7,2.3,3.3,8.4,3.8,9.5
		c0.1,0.1,0.1,0.3,0.1,0.4l0,0l0.2,1.4c-0.8-1.2-5.3-9.5-7.1-14c-0.2-0.5-0.2-0.8,0-1.8C20.6,48.6,23.9,39.7,24.8,37.6L24.8,37.6z
		 M18.3,24.9c0,0,0.3,1.1,0.7,2.3l0.1,0.4c0.2,0.8,0.4,1.6,0.5,2.1c0.1,0.5,0.1,0.6-0.1,1.1c-0.4,1.1-1.2,2.8-2,4.6l-0.3,0.8
		c-1,2.2-2,4.3-2.5,5.2c-0.2,0.4-0.5,0.7-0.9,1.2c-1,1-3,3-4.2,4.1c-0.4,0.4-0.6,0.7-0.6,1.3c-0.1,0.8-0.3,2.3-0.3,3
		c0,0.6,0.1,0.9,0.4,1.6c2.1,3.8,9.3,12.6,11.3,14.5c0.1,0.1,0.3,0.2,0.6,0.4c0.3,0.2,1.3,0.8,1.3,0.8c0,0,0.1,0.1,0.1,0.1l0,0
		l0.4,0.6c0,0,0,0-0.1,0l-0.2-0.1c-0.1-0.1-0.3-0.1-0.5-0.2l-0.5-0.2c-0.7-0.3-1.5-0.8-2-1c-0.2-0.1-0.3-0.2-0.5-0.3
		c-2.4-2-9.7-10.5-11.8-14.1c-0.5-0.9-0.6-1.2-0.5-2c0.1-1.6,0.3-3.5,0.5-4.4c0.1-0.5,0.2-0.8,0.6-1.3c1.3-1.5,3-3.6,4.6-5.7
		l0.6-0.7c2.4-3.2,4.7-6.4,5.5-8.1c0.2-0.4,0.2-0.5,0.2-0.9c0-1-0.3-3-0.4-3.5c0-0.1,0-0.2,0-0.2l0,0L18.3,24.9z M38.2,23l0.6,0.3
		c0.2,0.1,0.3,0.2,0.5,0.3c3.8,4,6.8,8.1,7.4,9.1c0.1,0.2,0.2,0.4,0.2,0.7c0.7,5.8,0.1,11.9-1.3,17.2c-0.1,0.5-0.3,0.7-0.7,1.1
		c-1.5,1.1-3.7,2.9-5.9,4.7l-0.7,0.6c-2.7,2.2-5.2,4.4-6.2,5.3c-0.3,0.2-0.5,0.5-0.7,0.8c-0.5,0.8-1.3,2.2-1.6,2.9l-0.1,0.2
		c-0.1,0.1-0.1,0.2-0.1,0.2c-0.5-1.1-1.6-3.7-2-4.8c-0.1-0.4-0.1-0.5,0-1c0.6-2.2,3.5-8.7,4-9.9l0,0l0,0.5c0,0.1,0,0.1,0,0.2
		c-0.3,0.8-1.8,5.9-2.1,8.1c-0.1,0.5-0.1,0.6,0,1.1c0.1,1,0.8,2.9,0.8,2.9s0.4-0.8,0.7-1.3c0.2-0.3,0.3-0.4,0.5-0.6
		c1.4-1.4,3.7-3.5,6.2-5.6l0.9-0.8c1.9-1.6,3.8-3.2,5.3-4.4c0.4-0.3,0.5-0.5,0.6-1.1c0.4-2.9,0.6-8.2,0.3-12c0-0.7-0.3-1.4-0.7-2
		c-0.9-1.4-2-2.7-3.7-4.4c-0.2-0.2-0.4-0.5-0.5-0.9C39.3,27.8,38.2,23,38.2,23L38.2,23z M6.2,29.1C6.4,29,6.7,29,6.9,29
		c1.1,0.3,3.4,0.8,5.1,1.3c0.2,0.1,0.5,0.3,0.7,0.5l0,0l0.4,0.6c0.1,0.2,0.1,0.5,0,0.7c-0.3,0.6-0.8,1.4-1.2,2.3l-0.4,0.6
		c-0.7,1.2-1.3,2.3-1.7,2.9c-0.2,0.4-0.4,0.6-0.8,0.7c-1.7,0.6-3.8,1.3-5.1,1.7c-0.3,0.1-0.3,0.2-0.3,0.5c0.1,0.5,0.4,2.3,0.5,2.8
		c0,0.2,0.2,0.3,0.5,0.3c0.7-0.1,2.7-0.6,2.7-0.6s-0.6,0.5-0.9,0.9c-0.1,0.1-0.1,0.1-0.2,0.1c-0.5,0.2-1.9,0.5-2.3,0.6
		c-0.3,0.1-0.5-0.1-0.6-0.4c0,0-0.6-2.4-0.8-3.2c0-0.1-0.1-0.2-0.1-0.4c-0.2-0.5-0.5-1.4-0.7-1.9c0-0.1,0-0.1,0-0.2
		c0-0.6,0.1-1.8,0.1-1.8s1.2,1.1,1.8,1.5c0.1,0.1,0.2,0.1,0.4,0.1c0.8-0.2,2.6-0.8,3.7-1.2c0.2-0.1,0.4-0.2,0.6-0.4
		c1-1.3,2.4-3.2,3.1-4.7c0.1-0.2,0.1-0.4,0.1-0.7l0,0l-0.2-0.5c0-0.2-0.2-0.3-0.4-0.4c-1.8-0.7-3.2-1.2-4.8-1.7l0,0L6.2,29.1z
		 M41.5,13.7c0.4-0.1,0.8-0.1,1.2,0c3,1.3,8,4.2,10.8,6.3c0.3,0.2,0.4,0.3,0.4,0.7c0.7,3,0.9,7.6,0.5,11.5c0,0.3-0.1,0.4-0.2,0.7
		c-1.8,3.6-3.8,7-5.9,9.7l0,0l0,0c0-0.3,0.2-1.9,0.2-2.7c0-0.1,0-0.2,0.1-0.2c0.4-0.3,0.9-0.7,1.2-1c0.1-0.1,0.2-0.2,0.3-0.3
		c0.9-1.4,2.4-4.3,3-6c0.2-0.4,0.2-0.9,0.2-1.3c-0.2-2.4-0.6-5.8-1.1-8c-0.1-0.4-0.3-0.7-0.7-0.9c-0.5-0.3-1.5-0.7-3.6-1.6
		c-0.3-0.1-0.6-0.3-0.8-0.5c-1.4-1.2-3.7-3-5.1-4.1c-0.4-0.3-0.9-0.4-1.4-0.3c-1,0.2-2.3,0.6-3,0.7c-0.2,0.1-0.3,0.1-0.6,0
		c-0.1,0-0.3,0-0.5,0l-0.3,0c-0.3,0-0.6-0.1-0.7-0.1l-0.1,0C37.8,15.2,40.1,14.2,41.5,13.7L41.5,13.7z M9.9,33.4
		c-0.7,1.2-1.6,2.5-2.3,3.3c-0.1,0.1-0.2,0.2-0.3,0.2c-0.7,0.3-2,0.7-2.9,1l0,0L9.9,33.4z M0.1,31.8l-0.4,3L-1.9,33
		C-1.6,32.4-0.8,31.9,0.1,31.8z M8.1,14.6l-0.4,0.5c0,0,0,0-0.1,0.1c-0.4,0.3-1.9,1.4-2.3,1.7c-0.1,0.1-0.2,0.2-0.2,0.3
		c-0.1,0.5-0.2,1.5-0.3,2c0,0.2-0.1,0.2-0.2,0.3c-0.7,0.3-1.5,0.6-2.2,0.9c-0.1,0.1-0.2,0.1-0.3,0.1c-0.1,0.1-1,0.8-1,0.8
		s1.9-0.5,2.6-0.6c0.2,0,0.2,0,0.4,0C4.4,20.9,4.6,21,4.8,21c0.2,0.1,0.3,0.1,0.5,0c0.8-0.2,2.1-0.5,2.9-0.7C8.5,20.3,8.7,20.2,9,20
		c0.3-0.2,1.2-0.9,1.2-0.9s0,0.1,0,0.2c0,0.1,0,0.1-0.1,0.1c-0.2,0.2-0.5,0.6-0.6,0.7c-0.4,0.4-0.6,0.5-1,0.7
		c-2,0.8-5.5,2.2-8.1,3.1C0.2,23.9,0.1,24,0,24.1c-0.1,0.1-0.3,0.3-0.3,0.3s2.1,0.2,2.8,0.2c0.2,0,0.4,0.1,0.5,0.2
		c0.5,0.5,2.3,2.3,2.8,2.9c0,0-5,0.8-7.3,1.4C-1.8,29.3-2,29.5-2,29.7c-0.2,0.7-0.6,2.9-0.6,2.9s-0.2-0.1-0.4-0.2
		c-0.2-0.1-0.2-0.2-0.4-0.3c-0.6-0.6-1.5-1.7-1.9-2.3c-0.1-0.2-0.2-0.4,0-0.6c0.5-0.6,1.4-1.6,1.9-2.2c0.1-0.1,0.1-0.2,0.2-0.3
		c0.2-0.3,0.4-1.2,0.5-1.6l0-0.1l0,0l0,0c0,0,0,0,0,0L-2.8,25C-3,25-3.2,25.2-3.3,25.2c-0.1,0.1-0.2,0.1-0.2,0.2
		c-0.1,0.2-0.2,0.5-0.3,0.7c0,0.1-0.1,0.2-0.2,0.2c-0.7,0.5-1.4,1.1-1.9,1.4c0,0-0.1,0-0.1,0c-0.1-0.1-0.3-0.4-0.4-0.5
		c0-0.1-0.1-0.1-0.1-0.2c0-0.1,0-0.4,0-0.5c0-0.2,0.1-0.3,0.3-0.6c0.3-0.3,0.6-0.6,0.9-0.9c0.8-0.7,2.8-2.3,6.3-4.8
		c0.1,0,0.1-0.1,0.2-0.2c0.4-0.5,1.4-1.9,1.7-2.2c0,0,0.1-0.1,0.1-0.1c0.4-0.3,0.6-0.5,1-0.7C5.1,16.4,7,15.3,8.1,14.6L8.1,14.6z
		 M29.7,13.5c0.1,0,0.3,0,0.4,0.1l0,0l1,0.5c0.1,0,0.2,0.1,0.2,0.3c0.1,0.6,0.3,1.4,0.4,2c0,0.3,0,0.6-0.1,0.8
		c-0.4,0.7-1.3,2.1-1.8,2.8c-0.1,0.2-0.1,0.4-0.1,0.6c0.2,1.2,1.2,5.6,1.2,5.6l0,0l-0.6-0.5c-0.1-0.1-0.2-0.2-0.2-0.4
		c-0.4-1.2-1.2-3.8-1.6-5c-0.1-0.2,0-0.4,0.1-0.6c0.6-0.7,1.5-1.9,2-2.7c0.1-0.2,0.2-0.4,0.1-0.6c-0.1-0.2-0.3-0.6-0.5-1
		c-0.1-0.1-0.1-0.2-0.2-0.2l0,0l-0.7-0.2c-0.1,0-0.3,0-0.4,0c-1.5,0.6-3.6,1.4-4.9,1.9c-0.2,0.1-0.3,0.1-0.5,0
		c-0.4-0.1-1.4-0.2-2-0.3c-0.1,0-0.1-0.1-0.1-0.2l0,0l0.6-1.1c0.1-0.1,0.2-0.2,0.4-0.3C24.6,14.5,27.2,14,29.7,13.5L29.7,13.5z
		 M7.7,18.4c0.1,0,0.2,0,0.2,0.1c0.1,0.3,0.1,0.6,0,0.9c0,0.1-0.2,0.2-0.3,0.2l0,0l-1,0.2c-0.1,0-0.1,0-0.1-0.1l0,0l0.1-1.2
		c0-0.1,0.1-0.1,0.1-0.1l0,0L7.7,18.4z M19,10.9c0.1,0,0.2,0.1,0.1,0.2l0,0l-2.4,4.2c-0.1,0.2-0.4,0.4-0.6,0.5l0,0l-4.5,1.4
		c-0.5,0.2-1,0.2-1.5,0.3c-1,0.1-4,0.2-4,0.2l0,0l0.1-0.1c0-0.1,0.1-0.1,0.2-0.1l0,0l1.4-0.6c0.1,0,0.2-0.1,0.3-0.2l0,0l2.2-2.7
		c0.1-0.1,0.3-0.3,0.4-0.4c1.4-0.8,4-1.9,5.8-2.5c0.2-0.1,0.4-0.1,0.6-0.1l0,0L19,10.9z M16.6,6.1c5-0.4,11.8-0.6,18.3-0.1
		c0.4,0,0.7,0.1,1.1,0.3C38,7.2,41.8,9.1,46,11.5c0.2,0.1,0.4,0.2,0.5,0.4c1.1,1,3.9,3.9,3.9,3.9l0,0l-0.9-0.2
		c-0.1,0-0.2-0.1-0.3-0.1c-1.8-1.2-4.4-2.7-6.5-3.8c-0.3-0.1-0.5-0.2-0.8-0.2c-1.1-0.1-2.5-0.2-3.4-0.2c-0.5,0-0.8-0.1-1.2-0.3
		c-0.9-0.4-2.9-1.4-4-1.8c-0.4-0.2-0.7-0.2-1.1-0.2c-1.8,0-5.8,0.2-7.9,0.3c-0.1,0-0.1,0-0.2,0l0,0l-1-0.2c2.8-0.5,9.7-1.1,12.6-1.3
		l0,0l-1.2-0.4c-0.2-0.1-0.5-0.1-0.7-0.1c-0.6,0-2,0-3.8,0l-0.6,0c-2.7,0-6.2,0.1-9.5,0.3c-0.3,0-0.6,0.1-0.8,0.2
		c-1.3,0.6-4.5,2.3-7.7,4.1l-0.7,0.4C9.8,12.6,9,13,8.2,13.5c0,0,0.4-0.5,0.5-0.6c0.1-0.1,0.1-0.1,0.2-0.2c0.1-0.1,0.6-0.4,1-0.7
		l0.3-0.2c0.3-0.2,0.5-0.3,0.6-0.4c0.1,0,0.1-0.1,0.2-0.1c1-0.7,2.5-2,3.4-2.8c0.2-0.2,0.4-0.4,0.5-0.6c0.3-0.5,0.6-1,0.8-1.3
		C15.9,6.3,16.2,6.1,16.6,6.1L16.6,6.1z M-4.8-5.4c1.2-0.1,1.9,0.4,1.9,1.6l0,0v0.7c0,1.3-0.7,1.8-1.9,1.9C-6.5-1-8.2-0.8-9.9-0.6
		l0,0v1.9c-0.4,0-0.7,0.1-1.1,0.1l0,0v-6.1C-8.9-5-6.8-5.2-4.8-5.4z M52.6-5.6c2.7,0.3,5.5,0.6,8.2,0.9l0,0v1
		c-1.2-0.1-2.4-0.3-3.5-0.4l0,0V1c-0.4,0-0.7-0.1-1.1-0.1l0,0v-5.1c-1.2-0.1-2.4-0.3-3.6-0.4l0,0V-5.6z M7.3-6.4v1
		C5.1-5.3,2.9-5.1,0.6-4.9l0,0v1.5c2-0.2,4-0.3,6-0.4l0,0v1c-2,0.1-4,0.3-6,0.4l0,0v1.7C2.9-1,5.1-1.2,7.3-1.3l0,0v1
		C4.8-0.1,2.2,0.1-0.4,0.3l0,0v-6.1C2.2-6.1,4.8-6.3,7.3-6.4z M42.2-4.7c0-1.4,0.7-1.7,2.2-1.6c1.3,0.1,2.7,0.2,4,0.3
		c1.3,0.1,2.2,0.5,2.2,1.9l0,0v2.7c0,1.4-0.8,1.6-2.2,1.5c-1.3-0.1-2.7-0.2-4-0.3C43-0.3,42.2-0.6,42.2-2l0,0V-4.7z M31.8-6.9
		c2.6,0.1,5.2,0.2,7.8,0.3l0,0v1c-2.2-0.1-4.5-0.2-6.7-0.3l0,0v1.5c2,0.1,4,0.1,6,0.2l0,0v1c-2-0.1-4-0.2-6-0.2l0,0v1.7
		c2.2,0.1,4.5,0.2,6.7,0.3l0,0v1c-2.6-0.1-5.2-0.2-7.8-0.3l0,0V-6.9z M18.3-6.9v4.4c0,1.4-0.7,1.7-2.2,1.8c-1.3,0-2.6,0.1-3.9,0.1
		C10.8-0.5,10-0.8,10-2.1l0,0v-4.4l0,0L11-6.6V-2c0,0.3,0.2,0.5,0.6,0.5c1.7-0.1,3.4-0.1,5.1-0.2c0.3,0,0.5-0.3,0.5-0.5l0,0v-4.6
		C17.6-6.9,17.9-6.9,18.3-6.9L18.3-6.9z M43.8-5.4c-0.3,0-0.6,0.2-0.6,0.5l0,0v3c0,0.3,0.2,0.6,0.6,0.6c1.7,0.1,3.5,0.2,5.2,0.4
		c0.3,0,0.6-0.2,0.6-0.5l0,0v-3c0-0.3-0.3-0.6-0.6-0.6C47.3-5.1,45.6-5.2,43.8-5.4z M22.9-7c1.9,0,3.9,0,5.8,0l0,0v1
		c-2.1,0-4.1,0-6.2,0C22.3-6,22-5.7,22-5.4l0,0v3.1c0,0.3,0.3,0.6,0.6,0.6c1.9,0,3.7,0,5.6,0l0,0v-1.7c-1.1,0-2.2,0-3.2,0l0,0v-1
		c1.4,0,2.9,0,4.3,0l0,0v3.6c-2,0-4,0-6,0c-1.5,0-2.2-0.2-2.2-1.7l0,0v-2.7C20.9-6.5,21.6-6.9,22.9-7L22.9-7z M-4.4-4.5L-4.4-4.5
		c-1.9,0.2-3.7,0.4-5.5,0.6l0,0v2.3C-8.1-1.8-6.3-2-4.4-2.2c0.3,0,0.6-0.3,0.6-0.6l0,0V-4C-3.9-4.3-4.2-4.5-4.4-4.5L-4.4-4.5z"/>
</g>
</svg>
